<svg width="24" height="24" viewBox="0 0 24 24" fill="none" xmlns="http://www.w3.org/2000/svg">
<path fill-rule="evenodd" clip-rule="evenodd" d="M9.00003 10V7H8.50003C8.22388 7 8.00003 6.77614 8.00003 6.5C8.00003 6.22386 8.22388 6 8.50003 6H9.17073C9.58257 4.83481 10.6938 4 12 4C13.3062 4 14.4175 4.83481 14.8293 6H15.5C15.7762 6 16 6.22386 16 6.5C16 6.77614 15.7762 7 15.5 7H15L15 10H15.5C15.7762 10 16 10.2239 16 10.5C16 10.7761 15.7762 11 15.5 11H15L15.0949 11.759L8.65351 13.7719L9 11H8.50003C8.22388 11 8.00003 10.7761 8.00003 10.5C8.00003 10.2239 8.22388 10 8.50003 10H9.00003ZM10 10V7H14V10H13V9C13 8.44772 12.5523 8 12 8C11.4477 8 11 8.44772 11 9V10H10Z" fill="white" fill-opacity="0.92"/>
<path d="M20.6583 6.97448C20.9202 6.88715 21.0618 6.60399 20.9745 6.34202C20.8872 6.08005 20.604 5.93847 20.342 6.02579L17.342 7.02579C17.0801 7.11312 16.9385 7.39628 17.0258 7.65825C17.1131 7.92022 17.3963 8.0618 17.6583 7.97448L20.6583 6.97448Z" fill="white" fill-opacity="0.92"/>
<path d="M20.9745 10.6585C21.0618 10.3965 20.9202 10.1133 20.6583 10.026L17.6583 9.02601C17.3963 8.93869 17.1131 9.08027 17.0258 9.34224C16.9385 9.60421 17.0801 9.88737 17.342 9.97469L20.342 10.9747C20.604 11.062 20.8872 10.9204 20.9745 10.6585Z" fill="white" fill-opacity="0.92"/>
<path d="M3.34202 6.97448C3.08005 6.88715 2.93847 6.60399 3.02579 6.34202C3.11312 6.08005 3.39628 5.93847 3.65825 6.02579L6.65825 7.02579C6.92022 7.11312 7.0618 7.39628 6.97448 7.65825C6.88715 7.92022 6.60399 8.0618 6.34202 7.97448L3.34202 6.97448Z" fill="white" fill-opacity="0.92"/>
<path d="M3.02579 10.6585C2.93847 10.3965 3.08005 10.1133 3.34202 10.026L6.34202 9.02601C6.60399 8.93869 6.88715 9.08027 6.97448 9.34224C7.0618 9.60421 6.92022 9.88737 6.65825 9.97469L3.65825 10.9747C3.39628 11.062 3.11312 10.9204 3.02579 10.6585Z" fill="white" fill-opacity="0.92"/>
<path d="M8.51722 14.8622L8.26326 16.8939L15.4558 14.6462L15.2209 12.7673L8.51722 14.8622Z" fill="white" fill-opacity="0.92"/>
<path d="M8 19L8.12705 17.9836C8.13442 17.9817 8.14179 17.9795 8.14914 17.9772L15.5818 15.6545L16 19H16.5C16.7761 19 17 19.2239 17 19.5C17 19.7761 16.7761 20 16.5 20H7.5C7.22386 20 7 19.7761 7 19.5C7 19.2239 7.22386 19 7.5 19H8Z" fill="white" fill-opacity="0.92"/>
</svg>
