<svg width="108" height="100" viewBox="0 0 108 100" fill="none" xmlns="http://www.w3.org/2000/svg">
<g filter="url(#filter0_d_265_9234)">
<path fill-rule="evenodd" clip-rule="evenodd" d="M41.5005 44.0835C38.2329 44.0835 35.5839 46.7325 35.5839 50.0002C35.5839 53.2679 38.2329 55.9168 41.5005 55.9168C44.7682 55.9168 47.4172 53.2679 47.4172 50.0002C47.4172 46.7325 44.7682 44.0835 41.5005 44.0835ZM39.5839 50.0002C39.5839 48.9416 40.442 48.0835 41.5005 48.0835C42.5591 48.0835 43.4172 48.9416 43.4172 50.0002C43.4172 51.0587 42.5591 51.9168 41.5005 51.9168C40.442 51.9168 39.5839 51.0587 39.5839 50.0002Z" fill="#C2BED0"/>
<path fill-rule="evenodd" clip-rule="evenodd" d="M65.0005 44.0835C61.7329 44.0835 59.0839 46.7325 59.0839 50.0002C59.0839 53.2679 61.7329 55.9168 65.0005 55.9168C68.2682 55.9168 70.9172 53.2679 70.9172 50.0002C70.9172 46.7325 68.2682 44.0835 65.0005 44.0835ZM63.0839 50.0002C63.0839 48.9416 63.942 48.0835 65.0005 48.0835C66.0591 48.0835 66.9172 48.9416 66.9172 50.0002C66.9172 51.0587 66.0591 51.9168 65.0005 51.9168C63.942 51.9168 63.0839 51.0587 63.0839 50.0002Z" fill="#C2BED0"/>
<path fill-rule="evenodd" clip-rule="evenodd" d="M43.3573 17.9237C43.0236 17.0896 42.1747 16.5803 41.2817 16.6785C35.4083 17.3244 29.5571 18.6622 23.7249 22.9271C23.3911 23.1712 23.1412 23.5126 23.0096 23.9045C19.241 35.1211 17.1841 44.8959 16.3899 52.7358C15.6034 60.4999 16.0316 66.5888 17.4434 70.2951C17.4626 70.3454 17.4837 70.3948 17.5068 70.4433C18.8209 73.2018 20.8029 76.3394 23.2493 78.8203C25.6599 81.265 28.7864 83.3332 32.3667 83.3332C33.2198 83.3332 33.9245 82.9241 34.341 82.6386C34.8197 82.3105 35.2866 81.8837 35.7204 81.4296C36.5943 80.5149 37.511 79.3021 38.3398 78.0022C39.1719 76.6971 39.9533 75.2449 40.5335 73.8303C40.846 73.0682 41.1219 72.2651 41.3058 71.4684C49.4161 72.9285 57.1022 72.9272 65.2132 71.4647C65.4198 72.2911 65.7337 73.1188 66.0852 73.8958C66.7277 75.3161 67.5903 76.7704 68.5027 78.0739C69.4126 79.3738 70.4126 80.5814 71.3548 81.4887C71.8231 81.9396 72.3192 82.3573 72.8184 82.6755C73.2574 82.9553 73.9636 83.3332 74.7922 83.3332C78.475 83.3332 81.7237 81.3031 84.2591 78.8547C86.8242 76.3778 88.9066 73.2411 90.2891 70.4782C90.314 70.4285 90.3368 70.3778 90.3574 70.3262C91.8473 66.6026 92.2958 60.4958 91.469 52.7257C90.6339 44.8775 88.4715 35.0964 84.5115 23.8759C84.3722 23.481 84.1124 23.1398 83.7688 22.9005C77.6595 18.6445 71.2252 17.3191 65.2127 16.6778C64.3218 16.5828 63.4763 17.0918 63.1436 17.9237L59.2269 27.7154C59.2144 27.7468 59.2027 27.7783 59.1918 27.8099C57.178 27.5627 55.2175 27.4375 53.2499 27.4375C51.2826 27.4375 49.3224 27.5626 47.309 27.8098C47.2982 27.7782 47.2865 27.7467 47.274 27.7154L43.3573 17.9237ZM43.2608 28.4528L40.2147 20.8377C35.4521 21.4789 31.0082 22.711 26.5968 25.7909C23.039 36.5105 21.1152 45.779 20.3696 53.1389C19.6087 60.6494 20.0976 65.9567 21.1538 68.798C22.3264 71.2409 24.0586 73.9441 26.0974 76.0118C28.1003 78.0429 30.1594 79.2256 32.0983 79.3262C32.2668 79.2077 32.5139 78.9954 32.8282 78.6664C33.4745 77.99 34.2351 76.9997 34.9671 75.8517C35.6958 74.7088 36.3586 73.4683 36.8326 72.3126C37.0893 71.6866 37.2717 71.1307 37.3872 70.6577C35.9812 70.3301 34.559 69.9602 33.1165 69.5481C32.0544 69.2446 31.4394 68.1376 31.7429 67.0756C32.0463 66.0135 33.1533 65.3985 34.2154 65.702C47.5646 69.516 58.9339 69.516 72.2831 65.702C73.3452 65.3985 74.4522 66.0135 74.7556 67.0756C75.0591 68.1376 74.4441 69.2446 73.382 69.5481C71.9476 69.9579 70.5334 70.3259 69.1352 70.6522C69.2601 71.1042 69.4547 71.6393 69.7297 72.2471C70.2499 73.3972 70.9785 74.6356 71.7796 75.78C72.5832 76.928 73.4192 77.9235 74.1294 78.6074C74.4873 78.952 74.7714 79.1769 74.9683 79.3024C74.984 79.3124 74.9983 79.3212 75.0114 79.3291C77.1373 79.2501 79.3568 78.0281 81.4806 75.9773C83.6253 73.9062 85.4438 71.2031 86.6734 68.765C87.7755 65.9403 88.2898 60.6514 87.4914 53.149C86.7093 45.7985 84.6908 36.5381 80.9562 25.8249C76.2704 22.7163 71.3215 21.475 66.289 20.8307L63.24 28.453C65.796 28.945 68.4883 29.6131 71.4243 30.452C72.4864 30.7554 73.1014 31.8624 72.7979 32.9245C72.4945 33.9865 71.3875 34.6015 70.3255 34.2981C63.5657 32.3667 58.3785 31.4375 53.2499 31.4375C48.1213 31.4375 42.9341 32.3667 36.1743 34.2981C35.1123 34.6015 34.0053 33.9865 33.7018 32.9245C33.3984 31.8624 34.0134 30.7554 35.0755 30.452C38.0118 29.613 40.7045 28.9448 43.2608 28.4528ZM31.9882 79.3969C31.9732 79.4031 31.9654 79.408 31.9654 79.408C31.9654 79.408 31.9678 79.4074 31.9731 79.4048C31.9768 79.403 31.9818 79.4004 31.9882 79.3969ZM75.1152 79.3842C75.1152 79.3842 75.1104 79.3827 75.1004 79.378C75.1101 79.3815 75.1152 79.3842 75.1152 79.3842Z" fill="#C2BED0"/>
</g>
<defs>
<filter id="filter0_d_265_9234" x="-0.000244141" y="0.666443" width="107.88" height="98.6667" filterUnits="userSpaceOnUse" color-interpolation-filters="sRGB">
<feFlood flood-opacity="0" result="BackgroundImageFix"/>
<feColorMatrix in="SourceAlpha" type="matrix" values="0 0 0 0 0 0 0 0 0 0 0 0 0 0 0 0 0 0 127 0" result="hardAlpha"/>
<feOffset/>
<feGaussianBlur stdDeviation="8"/>
<feComposite in2="hardAlpha" operator="out"/>
<feColorMatrix type="matrix" values="0 0 0 0 0.431373 0 0 0 0 0.34902 0 0 0 0 0.780392 0 0 0 0.64 0"/>
<feBlend mode="normal" in2="BackgroundImageFix" result="effect1_dropShadow_265_9234"/>
<feBlend mode="normal" in="SourceGraphic" in2="effect1_dropShadow_265_9234" result="shape"/>
</filter>
</defs>
</svg>
