<svg width="116" height="100" viewBox="0 0 116 100" fill="none" xmlns="http://www.w3.org/2000/svg">
<g filter="url(#filter0_d_448_26092)">
<path fill-rule="evenodd" clip-rule="evenodd" d="M86.6042 20.1389C81.4004 15.1469 74.204 15.1772 67.7798 17.5782C60.6525 20.2419 55.9017 26.8013 56 34.3847V36.3647C44.4917 36.0737 34.3296 30.5751 27.6251 21.2283C27.227 20.6733 26.5731 20.3598 25.8911 20.397C25.209 20.4342 24.5931 20.8169 24.2577 21.4119L26 22.394C24.2577 21.4119 24.2571 21.4129 24.2565 21.414L24.2549 21.4168L24.2507 21.4245L24.2376 21.4479C24.227 21.4671 24.2125 21.4935 24.1944 21.5269C24.1583 21.5937 24.1077 21.6885 24.0447 21.81C23.9187 22.0528 23.7431 22.4025 23.5343 22.8479C23.1169 23.7381 22.5648 25.0151 22.0109 26.5897C20.9071 29.7276 19.7754 34.1068 19.7271 38.9921C19.6786 43.8929 20.7219 49.3361 24.0038 54.5116C26.8358 58.9775 31.2645 63.1333 37.8667 66.5591C31.5936 70.3087 25.3551 72.5794 18.0776 72.2966C17.1492 72.2606 16.3182 72.8687 16.0716 73.7645C15.8251 74.6604 16.228 75.608 17.0442 76.052C30.6132 83.4336 45.5798 86.0719 58.6926 82.2726L58.6929 82.2725C73.6385 77.939 85.9514 66.7323 90.6652 49.9843L90.6678 49.9747C92.041 45.0007 92.7341 39.8647 92.7288 34.706C92.7505 34.6515 92.7799 34.5811 92.8187 34.4927C92.9635 34.1631 93.1841 33.7077 93.4737 33.1328C93.7899 32.5052 94.1557 31.7987 94.5592 31.0193C94.9073 30.3467 95.2836 29.6199 95.6803 28.8428C97.3036 25.6627 99.2249 21.7327 99.9227 18.9923C99.9733 18.8158 100 18.6307 100 18.4415V18.4375C100 17.427 99.2461 16.5752 98.2431 16.4524C97.8047 16.3987 97.379 16.4916 97.0182 16.6951C94.2069 18.0559 91.4949 18.7969 88.5331 19.6062C87.9026 19.7784 87.2607 19.9538 86.6042 20.1389ZM94.5514 21.998C92.7868 22.596 91.0404 23.0722 89.3406 23.5358C88.3995 23.7924 87.4727 24.0452 86.565 24.3125C85.8217 24.5315 85.0188 24.3013 84.5044 23.7219C80.7878 19.5358 75.1565 19.0914 69.1801 21.325C63.5358 23.4346 59.9201 28.5425 59.9998 34.3437L60 34.3712V38.3636C60 39.4483 59.1353 40.3353 58.051 40.3629C45.5401 40.6823 34.2639 35.4845 26.4328 26.2039C26.2244 26.7168 26.0047 27.2902 25.7843 27.917C24.7743 30.7882 23.7695 34.7179 23.7269 39.0316C23.6843 43.3298 24.5956 47.9756 27.3819 52.3695C30.1654 56.7591 34.9147 61.0462 42.798 64.4764C43.4696 64.7687 43.9277 65.4047 43.9922 66.1342C44.0567 66.8638 43.7172 67.5703 43.1073 67.9758C37.6016 71.6364 31.9724 74.5295 25.6555 75.7248C36.5458 80.1769 47.7553 81.2769 57.579 78.4307C71.2722 74.4604 82.4944 64.2455 86.8135 48.905C88.1109 44.2035 88.7551 39.3465 88.728 34.4701L90.728 34.459L88.728 34.4751C88.7246 34.0443 88.8543 33.6635 88.9005 33.5279L88.9017 33.5246C88.9721 33.3179 89.0627 33.0976 89.1564 32.8841C89.3457 32.4532 89.6059 31.9199 89.9014 31.3332C90.2177 30.7055 90.6064 29.9542 91.0254 29.1446C91.3765 28.466 91.7489 27.7464 92.1176 27.0242C92.9777 25.3392 93.8395 23.5957 94.5514 21.998ZM92.7279 34.4479C92.7279 34.4491 92.7279 34.4502 92.7279 34.4514L92.7279 34.4479ZM92.6861 34.8201C92.6805 34.842 92.6765 34.854 92.6758 34.8547C92.6752 34.8553 92.6779 34.8444 92.6861 34.8201Z" fill="#C2BED0"/>
</g>
<defs>
<filter id="filter0_d_448_26092" x="-0.000244141" y="0.00323486" width="116" height="99.9973" filterUnits="userSpaceOnUse" color-interpolation-filters="sRGB">
<feFlood flood-opacity="0" result="BackgroundImageFix"/>
<feColorMatrix in="SourceAlpha" type="matrix" values="0 0 0 0 0 0 0 0 0 0 0 0 0 0 0 0 0 0 127 0" result="hardAlpha"/>
<feOffset/>
<feGaussianBlur stdDeviation="8"/>
<feComposite in2="hardAlpha" operator="out"/>
<feColorMatrix type="matrix" values="0 0 0 0 0.431373 0 0 0 0 0.34902 0 0 0 0 0.780392 0 0 0 0.64 0"/>
<feBlend mode="normal" in2="BackgroundImageFix" result="effect1_dropShadow_448_26092"/>
<feBlend mode="normal" in="SourceGraphic" in2="effect1_dropShadow_448_26092" result="shape"/>
</filter>
</defs>
</svg>
